<mxfile host="app.diagrams.net" modified="2021-04-09T16:31:03.806Z" agent="5.0 (Windows NT 10.0; Win64; x64) AppleWebKit/537.36 (KHTML, like Gecko) Chrome/89.0.4389.114 Safari/537.36" etag="DXhiGcXVfeE98MhF_q7R" version="14.5.9" type="github">
  <diagram id="TKwqJGtF8iQ0ID2wzSL2" name="Page-1">
    <mxGraphModel dx="1422" dy="761" grid="1" gridSize="10" guides="1" tooltips="1" connect="1" arrows="1" fold="1" page="1" pageScale="1" pageWidth="850" pageHeight="1100" math="0" shadow="0">
      <root>
        <mxCell id="0" />
        <mxCell id="1" parent="0" />
        <mxCell id="IsS6LjrAichSsJtkdHf2-1" value="" style="rounded=0;whiteSpace=wrap;html=1;fillColor=#dae8fc;strokeColor=#6c8ebf;" vertex="1" parent="1">
          <mxGeometry x="240" y="190" width="120" height="20" as="geometry" />
        </mxCell>
        <mxCell id="IsS6LjrAichSsJtkdHf2-2" value="&lt;font style=&quot;font-size: 20px&quot;&gt;ChaCha20 PMT Schedule&lt;/font&gt;" style="text;html=1;strokeColor=none;fillColor=none;align=center;verticalAlign=middle;whiteSpace=wrap;rounded=0;" vertex="1" parent="1">
          <mxGeometry x="20" y="70" width="280" height="60" as="geometry" />
        </mxCell>
        <mxCell id="IsS6LjrAichSsJtkdHf2-3" value="Project Diagrams" style="text;html=1;strokeColor=none;fillColor=none;align=center;verticalAlign=middle;whiteSpace=wrap;rounded=0;" vertex="1" parent="1">
          <mxGeometry x="10" y="190" width="170" height="20" as="geometry" />
        </mxCell>
        <mxCell id="IsS6LjrAichSsJtkdHf2-5" value="SPMP" style="text;html=1;strokeColor=none;fillColor=none;align=center;verticalAlign=middle;whiteSpace=wrap;rounded=0;" vertex="1" parent="1">
          <mxGeometry x="10" y="230" width="170" height="20" as="geometry" />
        </mxCell>
        <mxCell id="IsS6LjrAichSsJtkdHf2-6" value="Backend Program" style="text;html=1;strokeColor=none;fillColor=none;align=center;verticalAlign=middle;whiteSpace=wrap;rounded=0;" vertex="1" parent="1">
          <mxGeometry x="10" y="270" width="170" height="20" as="geometry" />
        </mxCell>
        <mxCell id="IsS6LjrAichSsJtkdHf2-7" value="Frontend Program" style="text;html=1;strokeColor=none;fillColor=none;align=center;verticalAlign=middle;whiteSpace=wrap;rounded=0;" vertex="1" parent="1">
          <mxGeometry x="10" y="310" width="170" height="20" as="geometry" />
        </mxCell>
        <mxCell id="IsS6LjrAichSsJtkdHf2-8" value="Final Testing" style="text;html=1;strokeColor=none;fillColor=none;align=center;verticalAlign=middle;whiteSpace=wrap;rounded=0;" vertex="1" parent="1">
          <mxGeometry x="10" y="350" width="170" height="20" as="geometry" />
        </mxCell>
        <mxCell id="IsS6LjrAichSsJtkdHf2-9" value="Submission" style="text;html=1;strokeColor=none;fillColor=none;align=center;verticalAlign=middle;whiteSpace=wrap;rounded=0;" vertex="1" parent="1">
          <mxGeometry x="10" y="400" width="170" height="20" as="geometry" />
        </mxCell>
        <mxCell id="IsS6LjrAichSsJtkdHf2-10" value="" style="endArrow=none;html=1;" edge="1" parent="1">
          <mxGeometry width="50" height="50" relative="1" as="geometry">
            <mxPoint x="240" y="440" as="sourcePoint" />
            <mxPoint x="240" y="180" as="targetPoint" />
          </mxGeometry>
        </mxCell>
        <mxCell id="IsS6LjrAichSsJtkdHf2-11" value="April 1" style="text;html=1;strokeColor=none;fillColor=none;align=center;verticalAlign=middle;whiteSpace=wrap;rounded=0;" vertex="1" parent="1">
          <mxGeometry x="280" y="150" width="170" height="20" as="geometry" />
        </mxCell>
        <mxCell id="IsS6LjrAichSsJtkdHf2-12" value="May 1" style="text;html=1;strokeColor=none;fillColor=none;align=center;verticalAlign=middle;whiteSpace=wrap;rounded=0;" vertex="1" parent="1">
          <mxGeometry x="401" y="150" width="170" height="20" as="geometry" />
        </mxCell>
        <mxCell id="IsS6LjrAichSsJtkdHf2-13" value="March 1" style="text;html=1;strokeColor=none;fillColor=none;align=center;verticalAlign=middle;whiteSpace=wrap;rounded=0;" vertex="1" parent="1">
          <mxGeometry x="150" y="150" width="170" height="20" as="geometry" />
        </mxCell>
        <mxCell id="IsS6LjrAichSsJtkdHf2-15" value="" style="endArrow=none;html=1;" edge="1" parent="1">
          <mxGeometry width="50" height="50" relative="1" as="geometry">
            <mxPoint x="364.5" y="440" as="sourcePoint" />
            <mxPoint x="364.5" y="180" as="targetPoint" />
          </mxGeometry>
        </mxCell>
        <mxCell id="IsS6LjrAichSsJtkdHf2-16" value="" style="endArrow=none;html=1;" edge="1" parent="1">
          <mxGeometry width="50" height="50" relative="1" as="geometry">
            <mxPoint x="485.5" y="440" as="sourcePoint" />
            <mxPoint x="485.5" y="180" as="targetPoint" />
          </mxGeometry>
        </mxCell>
        <mxCell id="IsS6LjrAichSsJtkdHf2-17" value="" style="rounded=0;whiteSpace=wrap;html=1;fillColor=#dae8fc;strokeColor=#6c8ebf;" vertex="1" parent="1">
          <mxGeometry x="260" y="230" width="120" height="20" as="geometry" />
        </mxCell>
        <mxCell id="IsS6LjrAichSsJtkdHf2-18" value="" style="rounded=0;whiteSpace=wrap;html=1;fillColor=#dae8fc;strokeColor=#6c8ebf;" vertex="1" parent="1">
          <mxGeometry x="320" y="270" width="190" height="20" as="geometry" />
        </mxCell>
        <mxCell id="IsS6LjrAichSsJtkdHf2-20" value="" style="rounded=0;whiteSpace=wrap;html=1;fillColor=#dae8fc;strokeColor=#6c8ebf;" vertex="1" parent="1">
          <mxGeometry x="350" y="310" width="180" height="20" as="geometry" />
        </mxCell>
        <mxCell id="IsS6LjrAichSsJtkdHf2-22" value="" style="rounded=0;whiteSpace=wrap;html=1;fillColor=#dae8fc;strokeColor=#6c8ebf;" vertex="1" parent="1">
          <mxGeometry x="425" y="350" width="135" height="20" as="geometry" />
        </mxCell>
        <mxCell id="IsS6LjrAichSsJtkdHf2-23" value="" style="rounded=0;whiteSpace=wrap;html=1;fillColor=#dae8fc;strokeColor=#6c8ebf;" vertex="1" parent="1">
          <mxGeometry x="520" y="400" width="40" height="20" as="geometry" />
        </mxCell>
      </root>
    </mxGraphModel>
  </diagram>
</mxfile>
